<svg xmlns="http://www.w3.org/2000/svg" width="256" height="256" viewBox="171.755 176.022 256 256" role="img" aria-label="Kevynf Monogram">
  <rect x="171.755" y="176.022" width="256" height="256" rx="36" fill="#151819"/>

  <g transform="translate(29.9755 30.4022) scale(0.9)">
    <path
      fill="#ffffff"
      d="M179.42 212.23H201.89V302.46L254.53 212.23H280.54L241.22 279.65L272.94 336.05A73.179 73.179 0 0 0 392.9 347.06H420.09A95.651 95.651 0 0 1 253.36 347.06L228.09 302.15L201.89 347.06H179.42V212.23"
    />

    <g transform="translate(673.44,0) scale(-1,1)">
      <path
        fill="#ffffff"
        d="M286.16 212.23V347.06H387.28V324.59H308.63V290.88H376.05V268.41H308.63V234.7H387.28V212.23H286.16"
      />
    </g>
  </g>
</svg>
